<svg width="32px" height="32px" viewBox="0 0 1.28 1.28" fill="none" xmlns="http://www.w3.org/2000/svg"><path d="M0.64 0.08C0.331 0.08 0.08 0.331 0.08 0.64s0.251 0.56 0.56 0.56 0.56 -0.251 0.56 -0.56S0.949 0.08 0.64 0.08" fill="#FC471E"/><path fill-rule="evenodd" clip-rule="evenodd" d="M0.801 0.356a0.064 0.064 0 0 0 -0.001 0.01c0 0.034 0.027 0.061 0.06 0.061s0.06 -0.028 0.06 -0.061 -0.027 -0.061 -0.06 -0.061c-0.015 0 -0.028 0.005 -0.039 0.015L0.665 0.28l-0.056 0.231c-0.075 0.005 -0.142 0.028 -0.193 0.063a0.079 0.079 0 0 0 -0.056 -0.023c-0.044 0 -0.08 0.037 -0.08 0.082 0 0.031 0.017 0.059 0.043 0.073Q0.32 0.72 0.32 0.735C0.32 0.859 0.463 0.96 0.64 0.96s0.32 -0.101 0.32 -0.225q0 -0.015 -0.003 -0.03A0.082 0.082 0 0 0 1 0.632c0 -0.045 -0.036 -0.082 -0.08 -0.082a0.079 0.079 0 0 0 -0.056 0.023c-0.055 -0.038 -0.13 -0.062 -0.213 -0.064l0.044 -0.18zM0.5 0.755c0.033 0 0.06 -0.027 0.06 -0.061s-0.027 -0.061 -0.06 -0.061 -0.06 0.028 -0.06 0.061 0.027 0.061 0.06 0.061m0.28 0c0.033 0 0.06 -0.027 0.06 -0.061s-0.027 -0.061 -0.06 -0.061 -0.06 0.028 -0.06 0.061 0.027 0.061 0.06 0.061m-0.269 0.065a0.02 0.02 0 0 0 -0.028 0.006 0.021 0.021 0 0 0 0.006 0.028c0.044 0.03 0.097 0.045 0.151 0.045s0.108 -0.015 0.151 -0.045a0.021 0.021 0 0 0 0.006 -0.028 0.02 0.02 0 0 0 -0.028 -0.006c-0.037 0.025 -0.083 0.038 -0.129 0.038 -0.027 0 -0.055 -0.004 -0.08 -0.013a0.208 0.208 0 0 1 -0.049 -0.024" fill="white"/></svg>