<svg width="28" height="28" viewBox="0 0 28 28" fill="none" xmlns="http://www.w3.org/2000/svg">
<path fill-rule="evenodd" clip-rule="evenodd" d="M2.75001 5L25.3571 5.00004C25.3571 5.00004 25.3571 5.33584 25.3571 5.75004V9.16579V9.79426V22.75C25.3571 23.1642 25.3571 23.5 25.3571 23.5H2.75C2.55109 23.5 2 23.5 2 23.5C2 23.5 2 22.9489 2 22.75L2 9.79426V9.16579V5.75C2 5.55109 2 5.00002 2 5.00002C2 5.00002 2.5511 5 2.75001 5ZM3.5 10.7943L3.5 22H23.8571V10.7943L15.4417 16.4045C14.374 17.1163 12.9831 17.1163 11.9154 16.4045L3.5 10.7943ZM23.8571 8.99148L14.6097 15.1565C14.0458 15.5324 13.3113 15.5324 12.7475 15.1565L3.5 8.99148V6.50001L23.8571 6.50003V8.99148Z" fill="#3D3D3D"/>
</svg>
