<svg width="33" height="32" viewBox="0 0 33 32" fill="none" xmlns="http://www.w3.org/2000/svg">
<rect x="0.666649" width="32" height="32" rx="16" fill="#FF0000"/>
<path d="M27.6254 10.5043C27.3618 9.5252 26.5898 8.75318 25.6107 8.48957C23.8219 8 16.6666 8 16.6666 8C16.6666 8 9.51134 8 7.72253 8.47074C6.76222 8.73436 5.97138 9.5252 5.70776 10.5043C5.23702 12.2932 5.23702 16.0026 5.23702 16.0026C5.23702 16.0026 5.23702 19.7309 5.70776 21.5008C5.97138 22.48 6.74339 23.252 7.72253 23.5156C9.53017 24.0052 16.6666 24.0052 16.6666 24.0052C16.6666 24.0052 23.8219 24.0052 25.6107 23.5344C26.5898 23.2708 27.3618 22.4988 27.6254 21.5197C28.0962 19.7309 28.0962 16.0214 28.0962 16.0214C28.0962 16.0214 28.115 12.2932 27.6254 10.5043Z" fill="white"/>
<path d="M14.3882 19.4296L20.3384 16.0026L14.3882 12.5756V19.4296Z" fill="#FF0000"/>
</svg>
