<svg width="33" height="32" viewBox="0 0 33 32" fill="none" xmlns="http://www.w3.org/2000/svg">
<path fill-rule="evenodd" clip-rule="evenodd" d="M12.3756 6.45717C13.4009 6.41143 13.7287 6.39999 16.3358 6.39999C18.9429 6.39999 19.2707 6.41143 20.2998 6.45336C21.3251 6.49909 22.0227 6.66299 22.6325 6.89931C23.2614 7.14706 23.7988 7.47485 24.3325 8.00846C24.8661 8.54208 25.1977 9.0757 25.4416 9.70841C25.6779 10.3221 25.8418 11.0196 25.8876 12.0411C25.9333 13.0664 25.9447 13.3904 25.9447 16.0013C25.9447 18.6122 25.9333 18.9361 25.8876 19.9615C25.8418 20.9868 25.6779 21.6843 25.4416 22.2941C25.1939 22.923 24.8661 23.4604 24.3325 23.9941C23.7988 24.5277 23.2652 24.8593 22.6325 25.1032C22.0188 25.3395 21.3213 25.5034 20.2998 25.5492C19.2745 25.5949 18.9506 25.6063 16.3396 25.6063C13.7287 25.6063 13.4048 25.5949 12.3795 25.5492C11.3541 25.5034 10.6566 25.3395 10.0468 25.1032C9.41788 24.8555 8.88046 24.5277 8.34684 23.9941C7.81322 23.4604 7.48162 22.9268 7.23768 22.2941C7.00137 21.6805 6.83747 20.9829 6.79173 19.9615C6.74599 18.9361 6.73456 18.6084 6.73456 16.0013C6.73456 13.3942 6.74599 13.0664 6.79173 12.0449C6.83747 11.0196 7.00137 10.3221 7.23768 9.71222C7.48543 9.08332 7.81322 8.54589 8.34684 8.01228C8.88046 7.47866 9.41407 7.14706 10.0468 6.90312C10.6566 6.6668 11.3541 6.50291 12.3756 6.45717ZM21.4623 12.0258C22.0981 12.0258 22.6134 11.5105 22.6134 10.8747C22.6134 10.239 22.0981 9.72365 21.4623 9.72365C20.8266 9.72365 20.3113 10.239 20.3113 10.8747C20.3113 11.5105 20.8266 12.0258 21.4623 12.0258ZM16.3358 11.0729C13.6144 11.0729 11.4037 13.2798 11.4037 16.0051C11.4037 18.7303 13.6106 20.9372 16.3358 20.9372C19.0611 20.9372 21.268 18.7303 21.268 16.0051C21.268 13.2798 19.0611 11.0729 16.3358 11.0729ZM16.3358 19.2029C14.5673 19.2029 13.1341 17.7698 13.1341 16.0013C13.1341 14.2327 14.5673 12.7996 16.3358 12.7996C18.1044 12.7996 19.5375 14.2327 19.5375 16.0013C19.5375 17.7698 18.1044 19.2029 16.3358 19.2029Z" fill="white"/>
</svg>
