<svg width="33" height="32" viewBox="0 0 33 32" fill="none" xmlns="http://www.w3.org/2000/svg">
<rect x="0.666672" width="32" height="32" rx="16" fill="#191717"/>
<path fill-rule="evenodd" clip-rule="evenodd" d="M16.6629 5.60001C14.0632 5.60135 11.5487 6.52211 9.56915 8.19764C7.58956 9.87317 6.27392 12.1942 5.85746 14.7457C5.441 17.2972 5.95089 19.9129 7.29596 22.1249C8.64103 24.3369 10.7336 26.0011 13.1994 26.8198C13.7434 26.9208 13.9483 26.5836 13.9483 26.2969C13.9483 26.0103 13.9374 25.1791 13.9338 24.2703C10.8874 24.9284 10.2436 22.9848 10.2436 22.9848C9.74679 21.7227 9.0287 21.3909 9.0287 21.3909C8.03499 20.7166 9.10306 20.7292 9.10306 20.7292C10.2038 20.8067 10.7822 21.8525 10.7822 21.8525C11.7578 23.5167 13.3445 23.0353 13.9682 22.754C14.0662 22.049 14.3509 21.5694 14.6646 21.2972C12.2311 21.0231 9.67425 20.0891 9.67425 15.9169C9.65917 14.8349 10.063 13.7885 10.8022 12.9942C10.6897 12.7202 10.3144 11.6131 10.9091 10.1094C10.9091 10.1094 11.8285 9.81729 13.9211 11.2255C15.716 10.7374 17.6097 10.7374 19.4046 11.2255C21.4954 9.81729 22.413 10.1094 22.413 10.1094C23.0096 11.6095 22.6342 12.7166 22.5218 12.9942C23.2633 13.7886 23.6679 14.8368 23.6515 15.9205C23.6515 20.1017 21.0892 21.0231 18.6521 21.2917C19.0438 21.6307 19.3938 22.2924 19.3938 23.3093C19.3938 24.7662 19.3811 25.9381 19.3811 26.2969C19.3811 26.5872 19.5787 26.9262 20.1336 26.8198C22.5997 26.001 24.6925 24.3365 26.0375 22.1241C27.3825 19.9117 27.8922 17.2957 27.4752 14.7439C27.0583 12.1922 25.742 9.87113 23.7618 8.19589C21.7815 6.52065 19.2665 5.6005 16.6665 5.60001H16.6629Z" fill="white"/>
<path d="M9.85901 21.234C9.83543 21.2881 9.74839 21.3044 9.67767 21.2665C9.60695 21.2286 9.55437 21.1583 9.57976 21.1024C9.60514 21.0465 9.69037 21.0321 9.76109 21.07C9.83181 21.1078 9.88621 21.18 9.85901 21.234Z" fill="white"/>
<path d="M10.3032 21.7263C10.2656 21.7451 10.2227 21.7503 10.1816 21.7411C10.1406 21.7319 10.1041 21.7088 10.0783 21.6758C10.0076 21.6001 9.99308 21.4955 10.0475 21.4486C10.1019 21.4017 10.1998 21.4234 10.2705 21.4991C10.3413 21.5748 10.3576 21.6794 10.3032 21.7263Z" fill="white"/>
<path d="M10.7349 22.3519C10.6678 22.3988 10.5535 22.3519 10.49 22.2581C10.4725 22.2413 10.4585 22.2211 10.449 22.1988C10.4395 22.1765 10.4346 22.1526 10.4346 22.1283C10.4346 22.1041 10.4395 22.0801 10.449 22.0578C10.4585 22.0355 10.4725 22.0153 10.49 21.9985C10.5571 21.9534 10.6714 21.9985 10.7349 22.0905C10.7983 22.1824 10.8001 22.305 10.7349 22.3519Z" fill="white"/>
<path d="M11.3206 22.9577C11.2607 23.0245 11.1392 23.0064 11.0395 22.9163C10.9398 22.8261 10.9162 22.7035 10.976 22.6386C11.0359 22.5737 11.1574 22.5917 11.2607 22.6801C11.3641 22.7684 11.384 22.8928 11.3206 22.9577Z" fill="white"/>
<path d="M12.1419 23.3111C12.1147 23.3959 11.9914 23.4337 11.8681 23.3977C11.7448 23.3616 11.6632 23.2606 11.6868 23.1741C11.7104 23.0875 11.8355 23.0479 11.9606 23.0875C12.0857 23.1272 12.1655 23.2228 12.1419 23.3111Z" fill="white"/>
<path d="M13.0378 23.3724C13.0378 23.4608 12.9363 23.5365 12.8057 23.5383C12.6752 23.5401 12.5682 23.468 12.5682 23.3796C12.5682 23.2913 12.6697 23.2156 12.8003 23.2137C12.9308 23.2119 13.0378 23.2823 13.0378 23.3724Z" fill="white"/>
<path d="M13.8719 23.2336C13.8882 23.322 13.7976 23.4139 13.667 23.4356C13.5364 23.4572 13.4222 23.4049 13.4059 23.3184C13.3896 23.2318 13.4839 23.1381 13.6108 23.1146C13.7377 23.0912 13.8556 23.1453 13.8719 23.2336Z" fill="white"/>
</svg>
