<svg width="33" height="32" viewBox="0 0 33 32" fill="none" xmlns="http://www.w3.org/2000/svg">
<rect x="0.333321" width="32" height="32" rx="16" fill="#0A66C2"/>
<path d="M23.8341 7.2H8.83254C8.48797 7.2 8.15751 7.33688 7.91385 7.58053C7.6702 7.82418 7.53332 8.15464 7.53332 8.49922V23.5008C7.53332 23.8453 7.6702 24.1758 7.91385 24.4195C8.15751 24.6631 8.48797 24.8 8.83254 24.8H23.8341C24.1787 24.8 24.5091 24.6631 24.7528 24.4195C24.9964 24.1758 25.1333 23.8453 25.1333 23.5008V8.49922C25.1333 8.15464 24.9964 7.82418 24.7528 7.58053C24.5091 7.33688 24.1787 7.2 23.8341 7.2ZM12.7791 22.193H10.133V13.7878H12.7791V22.193ZM11.4542 12.623C11.1541 12.6213 10.8611 12.5307 10.6124 12.3627C10.3637 12.1947 10.1703 11.9568 10.0566 11.679C9.94299 11.4012 9.9142 11.0959 9.97388 10.8017C10.0336 10.5076 10.179 10.2377 10.392 10.0261C10.6049 9.81454 10.8757 9.67079 11.1703 9.613C11.4648 9.55521 11.7699 9.58597 12.047 9.70139C12.324 9.81681 12.5607 10.0117 12.7271 10.2615C12.8935 10.5113 12.9822 10.8048 12.982 11.105C12.9848 11.306 12.9472 11.5054 12.8713 11.6915C12.7954 11.8776 12.6828 12.0465 12.5402 12.1882C12.3976 12.3298 12.228 12.4413 12.0414 12.516C11.8549 12.5907 11.6551 12.6271 11.4542 12.623ZM22.5324 22.2003H19.8875V17.6084C19.8875 16.2542 19.3119 15.8362 18.5688 15.8362C17.7841 15.8362 17.0141 16.4278 17.0141 17.6427V22.2003H14.368V13.7939H16.9127V14.9587H16.9469C17.2023 14.4417 18.097 13.558 19.4622 13.558C20.9387 13.558 22.5337 14.4343 22.5337 17.001L22.5324 22.2003Z" fill="white"/>
</svg>
