<svg width="32" height="32" viewBox="0 0 32 32" fill="none" xmlns="http://www.w3.org/2000/svg">
<path fill-rule="evenodd" clip-rule="evenodd" d="M7.24273 15.8311C11.9071 13.799 15.0173 12.4592 16.5736 11.8119C21.0169 9.96379 21.9402 9.64275 22.542 9.63215C22.6744 9.62982 22.9703 9.66262 23.162 9.81817C23.3239 9.94951 23.3684 10.1269 23.3897 10.2515C23.4111 10.376 23.4376 10.6597 23.4165 10.8813C23.1757 13.4113 22.1338 19.5509 21.6038 22.3845C21.3795 23.5835 20.9379 23.9855 20.5103 24.0249C19.5812 24.1104 18.8756 23.4108 17.9757 22.8209C16.5675 21.8978 15.7719 21.3232 14.405 20.4224C12.8253 19.3814 13.8494 18.8093 14.7496 17.8742C14.9852 17.6295 19.0791 13.9058 19.1583 13.568C19.1683 13.5258 19.1775 13.3683 19.0839 13.2852C18.9903 13.202 18.8523 13.2304 18.7526 13.2531C18.6114 13.2851 16.3618 14.772 12.0037 17.7138C11.3652 18.1523 10.7868 18.3659 10.2686 18.3547C9.69731 18.3424 8.59839 18.0317 7.78145 17.7662C6.77945 17.4405 5.98308 17.2683 6.05243 16.7151C6.08855 16.427 6.48531 16.1323 7.24273 15.8311Z" fill="white"/>
</svg>
